<svg xmlns="http://www.w3.org/2000/svg" xmlns:xlink="http://www.w3.org/1999/xlink" viewBox="0 0 1500 1213.07"><defs><style>.cls-1{fill:none;}.cls-2{clip-path:url(#clip-path);}</style><clipPath id="clip-path"><rect class="cls-1" width="1500" height="1213.07"/></clipPath></defs><g id="Layer_4" data-name="Layer 4"><g id="Layer_5" data-name="Layer 5"><g class="cls-2"><path d="M1580.34,385.72c-2-28.83.89-50.61-22.68-70.74-23-19.7-27.68-20.5-33.2-50.42a319.17,319.17,0,0,0-7.29-31.3c-1.36-4.69-2.42-10.58-4.91-14.81-1-1.72-2.92-2.27-3.87-4.39-4.39-9.74,3.07-21.94,1.87-32-.8-6.8-6.14-9.62-10-14.55A36.16,36.16,0,0,0,1483.7,156c-4.36-1.58-9.37-.54-13.76-2.09-6.94-2.45-4.11-5.84-7.35-10.78-5.74-8.76-23.15-8.17-31.94-7.26-6.7.7-9,8.25-14.45,10-3.73,1.23-8.33-2.21-12.4-.6-3,1.19-5.16,3.2-8.48,4.65a279.7,279.7,0,0,1-31.5,11.76c-10.84,3.27-19.08,10.17-31,10.62-4.43.17-9.8-.08-12.39,3.37-3.9,5.18-.75,11.89-3.43,17.17-2.36,4.66-11,5.85-16.37,6-4,.09-7.09-1.26-10.91-.78-6.2.78-12.39,2.36-18.82,3-9.74,1-18.3-1.61-27.81-3.41-4.66-.88-14.56-4.32-18.9-2.83,1.16-7.14-11.87-13.69-6.42-20.27-4.81-2.35-11.93-.87-17.31-1.13-5.92-.29-11.1-1.69-16.86-2.64-5.46-.9-6.63,1.86-11.14,3.25-7.32,2.25-14.84,2.15-22.15,4.75-17.27,6.13-29.62,9-47.83,7.63-5.39-.41-9.49-2.32-14.91-2.81-1.51-.14-4.06-1.14-5.38-1-2.62.26-4.18,2.47-6.65,3-3.88.78-8.35-.79-12.24-.92-4.88-.16-10.19,0-14.89,1.47-2.81.87-4.63,2.63-7.74,2.64,2.64,0-2.57,14.87-3.08,16-2.68,6.17-3.81,9.77-10.92,10.35-8.21.66-16.3-2-24.53-.57-3.94.69-6.64,2.19-10.11,1.29a86,86,0,0,1-10.63-3.53c-3.88-1.82-5.51-7.32-11.81-4.67-4,1.68-7.23,7.37-10.81,10.33-2.5,2.05-2.94,1.34-4.38,4-.83,1.53-.07,3.84-1.23,5.41-8.31,11.17-29.22-7.43-34.43-14.21-3.48-4.52-4-8.49-11.55-8.29-.78-5.65-12.11-2.53-15.67-2-16.71,2.36-33.57,3.31-50.32,5.36-16.12,2-51.58,7.36-67.34,11.22-6.3,1.55-21.74.12-26.08,5.66-3.76,4.78-2.38,20.87-.87,26.48,10,1.1,8.45,8.74,6.05,16.71-5.06,16.79.24,33.33.06,50.81-.28,27.26,3.41,66.41-5.54,92.49-6.8-11.33-5.58-61.55-21.23-59.38.71-21.08-3.27-42-7.12-62.66-1.77-9.5-2.92-19.22-4.74-28.66-1.74-9-.65-19.08-3-27.83-2.06-7.6-9.3-5.33-15.72-5.71-1.8-4.43-7.41-3.65-11.43-3.84-10.4-.47-1.27-8.59-11.45-10.78-10.49-2.25-74.34-.82-71-23.43-8.44-3.11-18.89.76-27.48-2.32-30.2-10.87-63.4.28-93.64,6.23-21.67,4.26-33.66,7.95-52.06-.56-20.63-9.54-36.8-18-59.92-17.53-22.38.48-30.17,10-48.82-1.69-35-21.92-39.53-64.69-65.6-92.06-11.58-12.15-10.09-7.14-31.06-9.82-10.92-1.39-21.42-6.34-32.18-9.31V62a150.65,150.65,0,0,0-16.86.5c-.52,0-.85.07-1.07.08l-1,.23-.82.17a71.06,71.06,0,0,1-20.51,6c-3.6.46-7-1.08-9.71-3.5-2.07.38-4.16.75-6.25,1.1a7,7,0,0,0,2.64,2.94c-12.88,4.57-25.9,9.46-38.37,11.56-19.83,3.33-34.72-5.82-54.93-7.42-29.06-2.29-57.31,8-85.23,13.56C-80,95-125,93.17-166.22,98.85a234.32,234.32,0,0,0-32,6.5c-2.43,33.58,10.06,67.38,13.59,100.67,5.28,49.89,12.72,97,22,146.39,14.17,75.45,6.81,151,9.35,227.2.47,13.94-2.17,41.77,6.22,54.35,14.36,21.53,44.59,7.62,67.13,4.85C11.12,627.59,102.8,621,194.27,613.94c110.13-8.52,217.89-43.55,328.08-45.5a1577.5,1577.5,0,0,1,177,6.84c68.58,6.58,133.1,35.42,202,39.12,57.65,3.1,115.06-7.44,173.05-4.31,39.12,2.11,77.84,7.16,117,8,90.7,1.87,170.2-9.11,257.77-30.29,42.88-10.36,113.75-22.64,139.61-63.69C1613.48,485,1583.19,427.81,1580.34,385.72Z"/><rect x="-109.32" y="526.06" width="1669.09" height="804.13"/></g></g></g></svg>