<?xml version="1.0" encoding="UTF-8"?>
<svg xmlns="http://www.w3.org/2000/svg" xmlns:xlink="http://www.w3.org/1999/xlink" width="400pt" height="400pt" viewBox="0 0 400 400" version="1.1">
<g id="surface1">
<path style=" stroke:none;fill-rule:evenodd;fill:rgb(97.65625%,25.488281%,21.556091%);fill-opacity:1;" d="M 0 0 L 400 0 L 400 400 L 0 400 Z M 231.398438 123.300781 C 225.960938 128.5 220.511719 133.710938 215.179688 139.03125 C 235.011719 159.289063 255.578125 178.839844 275.871094 198.640625 C 271.761719 203.261719 267.148438 207.421875 262.828125 211.839844 C 246.75 227.109375 231.121094 242.839844 215.308594 258.378906 C 218.941406 262.5 223.03125 266.171875 226.890625 270.050781 C 228.398438 271.519531 229.769531 273.21875 231.738281 274.109375 C 257.539063 249.179688 282.949219 223.839844 308.691406 198.839844 C 297.070313 187.289063 285.019531 176.179688 273.511719 164.519531 C 259.730469 150.511719 245.390625 137.089844 231.398438 123.300781 Z M 131.359375 157.339844 C 117.011719 170.96875 102.910156 184.871094 89 198.949219 C 99.601563 209.441406 110.101563 220.039063 120.839844 230.390625 C 135.679688 244.261719 149.691406 258.988281 164.359375 273.039063 C 165.371094 274.609375 167.101563 273.667969 167.96875 272.570313 C 182.398438 258.808594 196.289063 244.5 210.648438 230.671875 C 221.601563 220.238281 232.261719 209.53125 242.988281 198.890625 C 231.621094 187.601563 220.371094 176.191406 208.648438 165.269531 C 194.539063 151.148438 180.25 137.21875 166.011719 123.230469 C 154.269531 134.410156 142.851563 145.910156 131.359375 157.339844 Z M 131.359375 157.339844 "/>
<path style=" stroke:none;fill-rule:evenodd;fill:rgb(99.609375%,99.609375%,99.609375%);fill-opacity:1;" d="M 231.398438 123.300781 C 245.390625 137.089844 259.730469 150.511719 273.511719 164.519531 C 285.019531 176.179688 297.070313 187.289063 308.691406 198.839844 C 282.949219 223.839844 257.539063 249.179688 231.738281 274.109375 C 229.769531 273.21875 228.398438 271.519531 226.890625 270.050781 C 223.03125 266.171875 218.941406 262.5 215.308594 258.378906 C 231.121094 242.839844 246.75 227.109375 262.828125 211.839844 C 267.148438 207.421875 271.761719 203.261719 275.871094 198.640625 C 255.578125 178.839844 235.011719 159.289063 215.179688 139.03125 C 220.511719 133.710938 225.960938 128.5 231.398438 123.300781 Z M 131.359375 157.339844 C 142.851563 145.910156 154.269531 134.410156 166.011719 123.230469 C 180.25 137.21875 194.539063 151.148438 208.648438 165.269531 C 220.371094 176.191406 231.621094 187.601563 242.988281 198.890625 C 232.261719 209.53125 221.601563 220.238281 210.648438 230.671875 C 196.289063 244.5 182.398438 258.808594 167.96875 272.570313 C 167.101563 273.667969 165.371094 274.609375 164.359375 273.039063 C 149.691406 258.988281 135.679688 244.261719 120.839844 230.390625 C 110.101563 220.039063 99.601563 209.441406 89 198.949219 C 102.910156 184.871094 117.011719 170.96875 131.359375 157.339844 Z M 131.359375 157.339844 "/>
</g>
</svg>
