<svg xmlns="http://www.w3.org/2000/svg" width="48" height="48" fill="none" id="teamviewer">
  <path fill="#fff" d="M0 24C0 10.745 10.745 0 24 0s24 10.745 24 24-10.745 24-24 24S0 37.255 0 24Z"></path>
  <path fill="url(#a)" fill-rule="evenodd" d="M12.576 9.6H35.39a3.035 3.035 0 0 1 2.133.878c.565.561.88 1.321.876 2.112v22.82c.008 1.64-1.33 2.978-2.992 2.99H12.591c-1.661-.012-3-1.35-2.992-2.99V12.59c-.008-1.634 1.32-2.969 2.976-2.99ZM12.095 24c-.045 6.528 5.279 11.858 11.894 11.908C30.607 35.862 35.935 30.531 35.89 24c.044-6.532-5.284-11.862-11.902-11.908-6.615.05-11.939 5.38-11.894 11.908Z" clip-rule="evenodd"></path>
  <path fill="url(#b)" d="M35.2 23.998 26.825 20l.673 2.562h-6.996L21.175 20 12.8 24.002 21.18 28l-.672-2.562h6.996L26.83 28l8.369-3.998"></path>
  <defs>
    <linearGradient id="a" x1="38.434" x2="38.434" y1="38.481" y2="9.591" gradientUnits="userSpaceOnUse">
      <stop stop-color="#096FD2"></stop>
      <stop offset="1" stop-color="#0E8EE9"></stop>
    </linearGradient>
    <linearGradient id="b" x1="32.388" x2="32.388" y1="28.008" y2="20.004" gradientUnits="userSpaceOnUse">
      <stop stop-color="#096FD2"></stop>
      <stop offset="1" stop-color="#0E8EE9"></stop>
    </linearGradient>
  </defs>
</svg>
